PathFileType	4	(X/Y/Z)	Walk1.trc
DataRate	CameraRate	NumFrames	NumMarkers	Units	OrigDataRate	OrigDataStartFrame	OrigNumFrames
200.000000	200.000000	6	69	mm	200.000000	411	577
Frame#	Times		LFHD		RFHD		RBHD		C7		CLAV		STRN		RBack		LASI		RASI		RACR1		RUA1		RFA1		RWRU		LACR1		LUA1		LElbow		LWRU		RTH3		RTH2		RTH4		RLFC		RMT5		LTH3		LTH2		LTH4		LLFC		LTB1		LTB3		LTB2		LTB4		LLMAL		LMMAL		LMT1		LMT5		LToe		LowerBodyModelVer		PELOrigin		LFA1		LTH1		LBHD		RElbow		RPSI		LCAR		LPSI		RCAL		LHJC		MidPelvis		OPelvis		RHJC		SACR		XPelvis		YPelvis		ZPelvis		RTH1		RMT1		RElbowM		RToe		RLMAL		RCAR		LWRR		RTB2		RTB1		RWRR		RTB3		RTB4		RMMAL		T10		LCAL		LElbowM
			X1	Y1	Z1	X2	Y2	Z2	X3	Y3	Z3	X4	Y4	Z4	X5	Y5	Z5	X6	Y6	Z6	X7	Y7	Z7	X8	Y8	Z8	X9	Y9	Z9	X10	Y10	Z10	X11	Y11	Z11	X12	Y12	Z12	X13	Y13	Z13	X14	Y14	Z14	X15	Y15	Z15	X16	Y16	Z16	X17	Y17	Z17	X18	Y18	Z18	X19	Y19	Z19	X20	Y20	Z20	X21	Y21	Z21	X22	Y22	Z22	X23	Y23	Z23	X24	Y24	Z24	X25	Y25	Z25	X26	Y26	Z26	X27	Y27	Z27	X28	Y28	Z28	X29	Y29	Z29	X30	Y30	Z30	X31	Y31	Z31	X32	Y32	Z32	X33	Y33	Z33	X34	Y34	Z34	X35	Y35	Z35	X36	Y36	Z36	X37	Y37	Z37	X38	Y38	Z38	X39	Y39	Z39	X40	Y40	Z40	X41	Y41	Z41	X42	Y42	Z42	X43	Y43	Z43	X44	Y44	Z44	X45	Y45	Z45	X46	Y46	Z46	X47	Y47	Z47	X48	Y48	Z48	X49	Y49	Z49	X50	Y50	Z50	X51	Y51	Z51	X52	Y52	Z52	X53	Y53	Z53	X54	Y54	Z54	X55	Y55	Z55	X56	Y56	Z56	X57	Y57	Z57	X58	Y58	Z58	X59	Y59	Z59	X60	Y60	Z60	X61	Y61	Z61	X62	Y62	Z62	X63	Y63	Z63	X64	Y64	Z64	X65	Y65	Z65	X66	Y66	Z66	X67	Y67	Z67	X68	Y68	Z68	X69	Y69	Z69

411	2.055	341.6	1563.6	20.666	344.36	1560.6	118.31	176.6	1587.7	132.27	110.54	1419	77.586	268.82	1347.7	63.775	334.9	1237.9	76.056	57.096	1306.8	164.5	277.08	984.68	-132.14	301.85	965.26	214.04	191.1	1372	242.64	161.63	1226.8	327.41	188.69	933.4	358.64	174.72	826.22	382.98	191.99	1376.8	-117.06	176.28	1232	-199.51	124.61	1088.8	-237.45	213.83	864.01	-299.84	227.74	554.69	215.93	286.82	641.41	208.95	231.96	640.1	233.48	229.08	460.68	199.24	330.61	28.572	186.39	252.24	567.88	-177.58	303.35	659.71	-166.08	248.47	654.81	-191.54	224.6	496.18	-167.61	190.12	333.45	-93.927	57.499	224.33	-86.653	101.82	302.83	-144.26	121.03	282.54	-89.976	-57.397	196.64	-123.07	-22.908	177.39	-48.1	16.172	60.296	-85.04	-25.858	78.23	-156.61	42.645	38	-101.86	9	2014	4	289.47	974.97	40.947	205.57	981.77	-264.43	247.51	739.11	-205.4	189.1	1576.6	-3.1677	123.12	1062	359.39	41.077	981.36	91.318	264.45	829.87	-296.11	43.346	984.87	-43.385	153.57	27.003	133.57	197.54	872.58	-76.894	165.84	979.04	32.457	289.47	974.97	40.947	214.38	859.37	158.51	42.211	983.11	23.967	369.23	972.95	35.126	291.8	1054.8	45.26	295.17	970.5	120.62	248.78	719.85	250.43	342.35	33.421	94.312	79.008	1051.6	278.79	386.48	32.691	102.3	208.57	65.054	177.6	213.29	773.47	359.32	257.13	872.89	-239.72	254.93	271.55	178.62	279.13	351.61	112.79	205.8	831.2	315.55	243.36	169.94	98.585	261.25	260.77	105.69	224.11	72.116	90.937	64.188	1087.2	43.399	-105.35	199.88	-62.301	118.23	1046.5	-146.06
412	2.06	346.21	1563.7	20.845	349.02	1560.8	118.48	181.3	1588	132.55	115.1	1419.3	77.857	273.3	1347.8	63.966	339.34	1237.7	76.035	61.649	1307.2	165.13	280.64	984.35	-132.12	305.61	964.54	214.26	196.01	1372.2	242.91	166.77	1227.1	327.84	194.38	934	359.48	180.83	826.77	383.98	196.35	1376.9	-116.9	180.08	1232	-199.24	127.78	1089.1	-237.18	213.79	863.3	-300.42	229.8	554.67	216.09	289.25	641.15	208.98	234.41	640.18	233.69	230.53	460.62	199.32	330.59	28.572	186.4	258.85	568.86	-177.93	309.25	661.13	-166.38	254.39	655.79	-191.79	231.9	497.13	-167.77	199.21	334.13	-94.689	67.617	223.95	-87.668	110.77	303.32	-144.74	130.8	282.66	-90.945	-47.403	195.49	-123.26	-12.331	176	-48.596	28.78	60.122	-87.124	-13.81	78.341	-158.36	55.552	38.17	-104.29	9	2014	4	293.13	974.44	41.074	207.31	981.14	-264.91	252.67	740.15	-205.53	193.7	1576.8	-2.8854	128.49	1062.4	360.27	45.041	981.94	91.721	264.14	828.79	-297.34	47.108	985.28	-42.997	153.55	27.012	133.52	200.63	872.46	-76.861	169.6	979.03	32.718	293.13	974.44	41.074	217.61	858.98	158.68	46.075	983.61	24.362	372.87	972.1	35.192	295.79	1054.3	45.449	298.87	969.89	120.74	251.58	719.79	250.56	342.36	33.399	94.312	84.135	1051.7	279.79	386.6	32.654	102.39	208.6	65.101	177.53	219.55	774.15	360.29	257.8	871.69	-240.76	255.62	271.42	178.62	279.94	351.46	112.77	211.69	831.81	316.49	243.66	169.85	98.539	261.8	260.66	105.65	224.12	72.067	90.876	68.32	1087.7	43.803	-95.474	197.23	-62.216	120.85	1047	-144.91
413	2.065	350.82	1563.8	20.989	353.7	1560.9	118.63	186.01	1588.3	132.79	119.65	1419.6	78.094	277.77	1347.9	64.136	343.78	1237.4	75.95	66.194	1307.7	165.74	284.2	983.96	-132.14	309.32	963.78	214.51	200.93	1372.5	243.16	171.89	1227.4	328.22	200.09	934.57	360.29	186.94	827.31	384.98	200.75	1376.9	-116.76	183.9	1232	-199	130.97	1089.4	-236.92	213.72	862.61	-301.01	231.87	554.63	216.24	291.69	640.86	209.01	236.87	640.22	233.89	232	460.54	199.4	330.57	28.571	186.41	265.37	569.83	-178.25	315.07	662.52	-166.69	260.22	656.73	-192.03	239.14	498.05	-167.9	208.33	334.77	-95.42	77.879	223.42	-88.662	119.81	303.66	-145.21	140.63	282.65	-91.865	-37.173	194	-123.49	-1.5767	174.4	-49.09	41.692	59.833	-88.985	-1.3754	78.161	-159.95	68.808	38.269	-106.43	9	2014	4	296.76	973.87	41.187	209.04	980.5	-265.4	257.78	741.14	-205.66	198.31	1577	-2.6367	133.86	1062.7	361.1	48.978	982.52	92.069	263.79	827.72	-298.59	50.888	985.7	-42.652	153.54	27.023	133.47	203.67	872.27	-76.861	173.35	978.99	32.948	296.76	973.87	41.187	220.75	858.55	158.86	49.933	984.11	24.708	376.49	971.18	35.253	299.77	1053.7	45.615	302.53	969.23	120.84	254.36	719.72	250.72	342.38	33.378	94.308	89.275	1051.8	280.76	386.73	32.621	102.48	208.62	65.15	177.46	225.82	774.81	361.26	258.42	870.49	-241.81	256.31	271.28	178.63	280.78	351.3	112.75	217.6	832.4	317.43	243.96	169.77	98.488	262.37	260.54	105.62	224.14	72.016	90.808	72.44	1088.1	44.181	-85.413	194.24	-62.271	123.7	1047.5	-143.74
414	2.07	355.45	1563.9	21.099	358.39	1561	118.73	190.74	1588.5	133	124.2	1419.9	78.3	282.23	1347.9	64.284	348.23	1237.1	75.799	70.734	1308.1	166.32	287.75	983.5	-132.21	312.98	963	214.79	205.88	1372.7	243.37	177	1227.6	328.55	205.8	935.13	361.08	193.05	827.85	385.99	205.19	1376.9	-116.62	187.75	1232	-198.78	134.17	1089.7	-236.69	213.63	861.93	-301.61	233.95	554.57	216.36	294.13	640.56	209.06	239.32	640.21	234.08	233.47	460.46	199.45	330.56	28.57	186.41	271.79	570.76	-178.55	320.83	663.86	-167.01	265.97	657.64	-192.25	246.34	498.91	-168	217.48	335.37	-96.117	88.278	222.72	-89.62	128.93	303.82	-145.66	150.5	282.52	-92.724	-26.71	192.18	-123.77	9.3539	172.6	-49.578	54.895	59.432	-90.63	11.425	77.702	-161.38	82.396	38.297	-108.28	9	2014	4	300.37	973.25	41.292	210.76	979.86	-265.9	262.85	742.07	-205.81	202.93	1577.2	-2.4212	139.24	1063.1	361.9	52.89	983.08	92.365	263.4	826.67	-299.84	54.685	986.12	-42.348	153.52	27.037	133.41	206.67	872.03	-76.89	177.08	978.92	33.15	300.37	973.25	41.292	223.83	858.09	159.07	53.787	984.6	25.008	380.09	970.21	35.315	303.75	1053.1	45.762	306.16	968.54	120.94	257.13	719.62	250.9	342.4	33.358	94.3	94.426	1051.9	281.68	386.86	32.59	102.56	208.65	65.199	177.38	232.08	775.46	362.25	259	869.27	-242.87	257.01	271.14	178.64	281.64	351.14	112.74	223.51	832.97	318.37	244.28	169.67	98.436	262.96	260.41	105.59	224.17	71.963	90.731	76.549	1088.5	44.535	-75.154	190.92	-62.449	126.75	1047.9	-142.58
415	2.075	360.08	1563.9	21.176	363.08	1561.1	118.81	195.48	1588.8	133.19	128.75	1420.2	78.481	286.7	1348	64.412	352.67	1236.7	75.584	75.272	1308.6	166.88	291.31	982.99	-132.32	316.61	962.2	215.1	210.84	1372.9	243.54	182.1	1227.8	328.83	211.52	935.67	361.85	199.16	828.39	387	209.68	1376.9	-116.48	191.63	1232	-198.58	137.4	1090	-236.47	213.51	861.28	-302.22	236.02	554.49	216.48	296.58	640.22	209.12	241.78	640.17	234.27	234.95	460.37	199.5	330.54	28.568	186.41	278.13	571.65	-178.82	326.52	665.14	-167.34	271.64	658.51	-192.45	253.5	499.73	-168.07	226.66	335.91	-96.776	98.809	221.87	-90.526	138.14	303.81	-146.08	160.42	282.27	-93.508	-16.018	190.06	-124.09	20.463	170.6	-50.056	68.378	58.92	-92.071	24.568	76.978	-162.67	96.3	38.254	-109.87	9	2014	4	303.96	972.6	41.392	212.47	979.21	-266.4	267.87	742.93	-205.96	207.55	1577.3	-2.238	144.63	1063.4	362.67	56.777	983.63	92.611	262.98	825.63	-301.09	58.499	986.55	-42.085	153.51	27.052	133.35	209.64	871.74	-76.945	180.8	978.85	33.328	303.96	972.6	41.392	226.85	857.61	159.3	57.638	985.09	25.263	383.66	969.19	35.383	307.71	1052.4	45.894	309.76	967.83	121.04	259.88	719.49	251.1	342.42	33.341	94.29	99.59	1052	282.56	386.99	32.562	102.65	208.68	65.247	177.3	238.34	776.09	363.26	259.55	868.05	-243.93	257.71	270.99	178.65	282.54	350.96	112.75	229.43	833.52	319.32	244.62	169.58	98.384	263.58	260.27	105.57	224.2	71.91	90.648	80.646	1088.9	44.865	-64.686	187.31	-62.733	130	1048.4	-141.45
416	2.08	364.71	1563.8	21.221	367.78	1561.1	118.86	200.23	1589	133.35	133.29	1420.5	78.639	291.17	1348	64.518	357.1	1236.2	75.305	79.81	1309	167.4	294.88	982.45	-132.46	320.2	961.41	215.44	215.81	1373.1	243.68	187.18	1227.9	329.07	217.25	936.2	362.6	205.27	828.91	388	214.2	1376.8	-116.35	195.53	1232.1	-198.4	140.64	1090.3	-236.27	213.38	860.65	-302.82	238.1	554.41	216.58	299.04	639.86	209.2	244.24	640.09	234.44	236.43	460.28	199.55	330.53	28.565	186.41	284.4	572.5	-179.04	332.15	666.38	-167.67	277.24	659.32	-192.62	260.63	500.5	-168.12	235.86	336.41	-97.389	109.47	220.87	-91.364	147.44	303.62	-146.47	170.37	281.89	-94.211	-5.099	187.64	-124.43	31.752	168.4	-50.519	82.129	58.302	-93.325	38.029	76.009	-163.82	110.5	38.144	-111.21	9	2014	4	307.54	971.93	41.489	214.18	978.57	-266.91	272.83	743.72	-206.13	212.19	1577.4	-2.0862	150.01	1063.6	363.4	60.642	984.17	92.81	262.53	824.62	-302.34	62.329	986.99	-41.862	153.5	27.07	133.29	212.59	871.41	-77.024	184.51	978.75	33.481	307.54	971.93	41.489	229.81	857.1	159.54	61.486	985.58	25.474	387.22	968.14	35.46	311.67	1051.7	46.013	313.34	967.11	121.13	262.63	719.34	251.31	342.45	33.325	94.277	104.76	1052	283.39	387.13	32.537	102.73	208.71	65.294	177.22	244.59	776.71	364.27	260.06	866.83	-244.98	258.41	270.84	178.69	283.48	350.78	112.78	235.36	834.06	320.27	244.98	169.48	98.336	264.23	260.13	105.56	224.25	71.858	90.559	84.729	1089.3	45.17	-53.998	183.39	-63.104	133.4	1048.7	-140.38
